<?xml version="1.0" encoding="UTF-8" standalone="no"?>
<svg
   viewBox="0 0 448 447.98999"
   version="1.1"
   id="svg381"
   sodipodi:docname="linkedin.svg"
   width="448"
   height="447.98999"
   inkscape:version="1.2.1 (9c6d41e410, 2022-07-14)"
   xmlns:inkscape="http://www.inkscape.org/namespaces/inkscape"
   xmlns:sodipodi="http://sodipodi.sourceforge.net/DTD/sodipodi-0.dtd"
   xmlns="http://www.w3.org/2000/svg"
   xmlns:svg="http://www.w3.org/2000/svg">
  <defs
     id="defs385" />
  <sodipodi:namedview
     id="namedview383"
     pagecolor="#ffffff"
     bordercolor="#000000"
     borderopacity="0.25"
     inkscape:showpageshadow="2"
     inkscape:pageopacity="0.0"
     inkscape:pagecheckerboard="0"
     inkscape:deskcolor="#d1d1d1"
     showgrid="false"
     inkscape:zoom="1.0253906"
     inkscape:cx="224.79238"
     inkscape:cy="256.48762"
     inkscape:window-width="1360"
     inkscape:window-height="705"
     inkscape:window-x="-8"
     inkscape:window-y="-8"
     inkscape:window-maximized="1"
     inkscape:current-layer="svg381" />
  <!--! Font Awesome Pro 6.4.0 by @fontawesome - https://fontawesome.com License - https://fontawesome.com/license (Commercial License) Copyright 2023 Fonticons, Inc. -->
  <path
     d="M 100.28,447.99 H 7.4 v -299.1 h 92.88 z M 53.79,108.09 C 24.09,108.09 0,83.49 0,53.79 a 53.79,53.79 0 0 1 107.58,0 c 0,29.7 -24.1,54.3 -53.79,54.3 z m 394.11,339.9 h -92.68 v -145.6 c 0,-34.7 -0.7,-79.2 -48.29,-79.2 -48.29,0 -55.69,37.7 -55.69,76.7 v 148.1 h -92.78 v -299.1 h 89.08 v 40.8 h 1.3 c 12.4,-23.5 42.69,-48.3 87.88,-48.3 94,0 111.28,61.9 111.28,142.3 v 164.3 z"
     id="path379"
     style="fill:#6e6e6e;fill-opacity:1" />
</svg>
