<?xml version="1.0" encoding="UTF-8" standalone="no"?>
<svg
   id="Layer_2"
   data-name="Layer 2"
   viewBox="0 0 574.29 290.9"
   version="1.1"
   sodipodi:docname="Asset 1.svg"
   inkscape:version="1.2.1 (9c6d41e410, 2022-07-14)"
   xmlns:inkscape="http://www.inkscape.org/namespaces/inkscape"
   xmlns:sodipodi="http://sodipodi.sourceforge.net/DTD/sodipodi-0.dtd"
   xmlns="http://www.w3.org/2000/svg"
   xmlns:svg="http://www.w3.org/2000/svg">
  <sodipodi:namedview
     id="namedview14"
     pagecolor="#ffffff"
     bordercolor="#000000"
     borderopacity="0.25"
     inkscape:showpageshadow="2"
     inkscape:pageopacity="0.0"
     inkscape:pagecheckerboard="0"
     inkscape:deskcolor="#d1d1d1"
     showgrid="false"
     inkscape:zoom="1.8047439"
     inkscape:cx="287.02133"
     inkscape:cy="145.72704"
     inkscape:window-width="1360"
     inkscape:window-height="705"
     inkscape:window-x="-8"
     inkscape:window-y="-8"
     inkscape:window-maximized="1"
     inkscape:current-layer="Layer_2" />
  <defs
     id="defs4">
    <style
       id="style2">
      .cls-1 {
        fill: #231f20;
      }
    </style>
  </defs>
  <g
     id="Layer_1-2"
     data-name="Layer 1"
     style="fill:#ffffff">
    <g
       id="g10"
       style="fill:#ffffff">
      <path
         class="cls-1"
         d="M443.22,290.9h-76.77l-35.15-54.54H111.11l-34.75,54.54H0L178.58,0h85.65l178.99,290.9ZM216.96,66.67l-67.07,103.03h143.43l-67.88-103.03h-8.48Z"
         id="path6"
         style="fill:#ffffff" />
      <path
         class="cls-1"
         d="M478.53,290.9h-95.4L245.17,66.67,204.15,0H472.47c11.58,0,22.69,2.29,33.33,6.87,10.64,4.58,20.06,10.64,28.28,18.18,8.21,7.54,14.81,16.03,19.8,25.45,4.98,9.43,7.47,18.99,7.47,28.69v4.44c0,4.31-.81,9.36-2.42,15.15-1.62,5.8-4.31,11.31-8.08,16.57-3.77,5.25-8.62,9.97-14.55,14.14-5.93,4.18-13.2,6.94-21.82,8.28v8.89c9.7,0,18.24,1.35,25.66,4.04,7.4,2.7,13.67,6.2,18.79,10.51,5.11,4.31,8.95,9.16,11.51,14.55,2.56,5.39,3.84,10.78,3.84,16.16v11.31c0,9.97-2.22,20.14-6.67,30.5-4.45,10.37-10.85,19.8-19.19,28.28-8.35,8.48-18.45,15.42-30.3,20.81-11.86,5.39-25.05,8.08-39.59,8.08ZM284.52,66.67v44.85h173c5.66,0,10.43-.4,14.34-1.21,3.9-.81,7.13-1.82,9.7-3.03,2.56-1.21,4.51-2.56,5.86-4.04,1.35-1.48,2.36-2.96,3.03-4.44,.67-1.48,1.14-2.83,1.41-4.04,.26-1.21,.4-2.22,.4-3.03s-.2-1.95-.61-3.43c-.4-1.48-1.08-3.16-2.02-5.05-.95-1.88-2.22-3.84-3.84-5.86-1.62-2.02-3.71-3.84-6.26-5.45-2.56-1.62-5.66-2.89-9.29-3.84-3.64-.94-7.88-1.41-12.73-1.41h-173Zm39,111.11v46.46h147.74c6.19,0,11.45-.74,15.76-2.22,4.31-1.48,7.81-3.43,10.51-5.86,2.69-2.43,4.71-5.32,6.06-8.69,1.34-3.36,2.02-7.07,2.02-11.11,0-1.07-.34-2.63-1.01-4.65-.67-2.02-2.16-4.04-4.44-6.06-2.29-2.02-5.72-3.84-10.3-5.45-4.58-1.62-10.78-2.43-18.59-2.43h-147.74Z"
         id="path8"
         style="fill:#ffffff" />
    </g>
  </g>
</svg>
