<?xml version="1.0" encoding="UTF-8" standalone="no"?>
<svg
   viewBox="0 0 512 384"
   version="1.1"
   id="svg190"
   sodipodi:docname="envelope-regular.svg"
   width="512"
   height="384"
   inkscape:version="1.2.1 (9c6d41e410, 2022-07-14)"
   xmlns:inkscape="http://www.inkscape.org/namespaces/inkscape"
   xmlns:sodipodi="http://sodipodi.sourceforge.net/DTD/sodipodi-0.dtd"
   xmlns="http://www.w3.org/2000/svg"
   xmlns:svg="http://www.w3.org/2000/svg">
  <defs
     id="defs194" />
  <sodipodi:namedview
     id="namedview192"
     pagecolor="#ffffff"
     bordercolor="#000000"
     borderopacity="0.25"
     inkscape:showpageshadow="2"
     inkscape:pageopacity="0.0"
     inkscape:pagecheckerboard="0"
     inkscape:deskcolor="#d1d1d1"
     showgrid="false"
     inkscape:zoom="1.0253906"
     inkscape:cx="244.29714"
     inkscape:cy="192.1219"
     inkscape:window-width="1366"
     inkscape:window-height="705"
     inkscape:window-x="1358"
     inkscape:window-y="-8"
     inkscape:window-maximized="1"
     inkscape:current-layer="svg190" />
  <!--!Font Awesome Free 6.5.2 by @fontawesome - https://fontawesome.com License - https://fontawesome.com/license/free Copyright 2024 Fonticons, Inc.-->
  <path
     d="M 48,0 C 21.5,0 0,21.5 0,48 0,63.1 7.1,77.3 19.2,86.4 l 217.6,163.2 c 11.4,8.5 27,8.5 38.4,0 L 492.8,86.4 C 504.9,77.3 512,63.1 512,48 512,21.5 490.5,0 464,0 Z M 0,112 v 208 c 0,35.3 28.7,64 64,64 h 384 c 35.3,0 64,-28.7 64,-64 V 112 L 294.4,275.2 c -22.8,17.1 -54,17.1 -76.8,0 z"
     id="path188"
     style="fill:#6e6e6e;fill-opacity:1" />
</svg>
