<?xml version="1.0" encoding="UTF-8" standalone="no"?>
<svg
   viewBox="0 0 448 448"
   version="1.1"
   id="svg166"
   sodipodi:docname="font-solid.svg"
   width="448"
   height="448"
   inkscape:version="1.2.1 (9c6d41e410, 2022-07-14)"
   xmlns:inkscape="http://www.inkscape.org/namespaces/inkscape"
   xmlns:sodipodi="http://sodipodi.sourceforge.net/DTD/sodipodi-0.dtd"
   xmlns="http://www.w3.org/2000/svg"
   xmlns:svg="http://www.w3.org/2000/svg">
  <defs
     id="defs170" />
  <sodipodi:namedview
     id="namedview168"
     pagecolor="#ffffff"
     bordercolor="#000000"
     borderopacity="0.25"
     inkscape:showpageshadow="2"
     inkscape:pageopacity="0.0"
     inkscape:pagecheckerboard="0"
     inkscape:deskcolor="#d1d1d1"
     showgrid="false"
     inkscape:zoom="1.0253906"
     inkscape:cx="213.08952"
     inkscape:cy="224.30476"
     inkscape:window-width="1366"
     inkscape:window-height="705"
     inkscape:window-x="1358"
     inkscape:window-y="-8"
     inkscape:window-maximized="1"
     inkscape:current-layer="svg166" />
  <!--!Font Awesome Free 6.5.2 by @fontawesome - https://fontawesome.com License - https://fontawesome.com/license/free Copyright 2024 Fonticons, Inc.-->
  <path
     d="M 254,20.8 C 249.3,8.3 237.3,0 224,0 210.7,0 198.7,8.3 194,20.8 L 57.8,384 H 32 c -17.7,0 -32,14.3 -32,32 0,17.7 14.3,32 32,32 h 96 c 17.7,0 32,-14.3 32,-32 0,-17.7 -14.3,-32 -32,-32 h -1.8 l 18,-48 h 159.6 l 18,48 H 320 c -17.7,0 -32,14.3 -32,32 0,17.7 14.3,32 32,32 h 96 c 17.7,0 32,-14.3 32,-32 0,-17.7 -14.3,-32 -32,-32 H 390.2 Z M 279.8,272 H 168.2 L 224,123.1 Z"
     id="path164"
     style="fill:#6e6e6e;fill-opacity:1" />
</svg>
